<svg width="201" height="26" viewBox="0 0 201 26" fill="none" xmlns="http://www.w3.org/2000/svg">
<g clip-path="url(#clip0_442_425)">
<path fill-rule="evenodd" clip-rule="evenodd" d="M8.31171 1.21423C10.3592 1.21423 12.0497 2.75771 12.3045 4.75533V5.12684H8.54839C8.45827 5.12684 8.37095 5.15838 8.30138 5.21607L6.73208 6.51745C6.61508 6.46202 6.4844 6.43104 6.34654 6.43104C5.84581 6.43104 5.4399 6.83977 5.4399 7.34398C5.4399 7.84818 5.84581 8.25692 6.34654 8.25692C6.84727 8.25692 7.25318 7.84818 7.25318 7.34398C7.25318 7.26725 7.24378 7.19272 7.22608 7.12152L8.68762 5.90936H12.3045L12.3045 12.5608L4.9641 12.5608C4.8186 12.2524 4.50638 12.0391 4.14469 12.0391C3.64396 12.0391 3.23805 12.4478 3.23805 12.952C3.23805 13.4562 3.64396 13.865 4.14469 13.865C4.50633 13.865 4.81851 13.6518 4.96404 13.3434L12.3045 13.3433L12.3045 19.9947H8.68762L7.22608 18.7826C7.24378 18.7114 7.25318 18.6368 7.25318 18.5601C7.25318 18.0559 6.84727 17.6472 6.34654 17.6472C5.84581 17.6472 5.4399 18.0559 5.4399 18.5601C5.4399 19.0643 5.84581 19.473 6.34654 19.473C6.4844 19.473 6.61508 19.4421 6.73208 19.3866L8.30138 20.688C8.37095 20.7457 8.45827 20.7772 8.54839 20.7772H12.3045V21.1489C12.0209 23.1509 10.3077 24.6898 8.24678 24.6898C6.34715 24.6898 4.74994 23.3823 4.28942 21.61C2.91142 21.0037 1.94808 19.6161 1.94808 18.0013C1.94808 17.6205 2.00163 17.2525 2.10161 16.9042C0.869567 16.2575 0.0228445 14.9655 0.000484307 13.4717L3.05176e-05 13.3433C3.05176e-05 11.7095 0.994498 10.3096 2.40716 9.7239C2.14719 9.24367 1.98688 8.70044 1.95427 8.12269L1.95069 8.04484C1.94548 7.96405 1.94284 7.88256 1.94284 7.80045C1.94284 6.1817 2.97048 4.80463 4.40468 4.29464C4.8408 2.52534 6.42464 1.21423 8.31171 1.21423ZM21.5103 4.33988C21.0903 2.5477 19.4956 1.21423 17.5925 1.21423C15.545 1.21423 13.8545 2.75771 13.5997 4.75533V21.1489C13.8833 23.1509 15.5965 24.6898 17.6574 24.6898C19.557 24.6898 21.1542 23.3823 21.6148 21.61C22.9928 21.0037 23.9561 19.6161 23.9561 18.0013C23.9561 17.6205 23.9026 17.2525 23.8026 16.9042C25.0513 16.2487 25.9042 14.9305 25.9042 13.4111C25.9042 12.0439 25.2136 10.8395 24.1655 10.1347C24.1607 10.2107 24.1339 10.286 24.0841 10.3506C23.3039 11.3625 22.4221 11.9993 21.4513 12.2598C21.4334 12.3071 21.416 12.3586 21.3993 12.414C21.3166 12.6895 21.2736 12.9965 21.2894 13.3258C21.3027 13.6003 21.3568 13.879 21.4581 14.1603C21.5316 14.3645 21.4273 14.5902 21.2251 14.6645C21.0229 14.7387 20.7993 14.6334 20.7258 14.4292C20.5974 14.0725 20.5281 13.716 20.5111 13.364C20.4945 13.0194 20.528 12.6935 20.5988 12.3918C19.6182 12.4365 18.5588 12.1341 17.4317 11.4839C17.2449 11.3761 17.1799 11.1358 17.2866 10.9471C17.3934 10.7584 17.6313 10.6928 17.8182 10.8006L17.8872 10.84C20.1618 12.1229 21.9812 11.7019 23.4745 9.76502C23.7812 9.21461 23.9561 8.57934 23.9561 7.90282C23.9561 6.27145 22.939 4.87998 21.5103 4.33988ZM15.537 17.5968C15.4571 17.395 15.5543 17.166 15.7541 17.0854C15.9468 17.0076 16.1645 17.0961 16.2514 17.2834L16.2605 17.3045L16.2772 17.3398C16.3114 17.4082 16.3622 17.4905 16.4304 17.5769C16.5426 17.719 16.6799 17.8428 16.8439 17.9374C17.2448 18.1687 17.7678 18.21 18.457 17.9782C19.0223 17.6088 19.7255 17.4328 20.5592 17.4571C20.7743 17.4634 20.9436 17.6446 20.9374 17.8618C20.9312 18.079 20.7518 18.25 20.5367 18.2437C19.0034 18.1989 18.0993 18.9347 17.733 20.5387C17.6846 20.7505 17.4754 20.8825 17.2658 20.8337C17.0561 20.7848 16.9253 20.5736 16.9737 20.3619C17.1018 19.8011 17.2933 19.3191 17.5461 18.9179C17.1405 18.9079 16.777 18.8051 16.4573 18.6206C16.0088 18.3618 15.7216 17.998 15.5595 17.6485L15.5558 17.6405L15.537 17.5968ZM17.3127 4.88625C17.0976 4.89135 16.9273 5.07158 16.9323 5.28882C16.9487 5.99431 17.0994 6.6001 17.3799 7.10164C16.7157 7.14906 16.0671 7.50264 15.4769 8.2131C15.3386 8.37958 15.3602 8.62775 15.525 8.76739C15.6899 8.90704 15.9356 8.88529 16.0739 8.71882C16.5554 8.13915 17.0336 7.89376 17.5039 7.88335C17.6927 7.87917 17.8735 7.91384 18.0421 7.97732C18.1447 8.01592 18.2302 8.06001 18.2944 8.10089L18.3267 8.1224L18.3467 8.13675C18.3555 8.14266 18.3645 8.14816 18.3736 8.15312C18.8152 8.43859 19.3558 8.63943 19.9924 8.75265C20.2043 8.79034 20.4064 8.64741 20.4437 8.4334C20.481 8.2194 20.3395 8.01537 20.1276 7.97768C19.5879 7.88171 19.1421 7.71933 18.7868 7.48731L18.7521 7.46297L18.7124 7.43675C18.06 6.97595 17.7343 6.2615 17.7113 5.27036C17.7063 5.05312 17.5278 4.88115 17.3127 4.88625Z" fill="url(#paint0_linear_442_425)"/>
</g>
<path d="M47.2465 11.3288H43.3553C43.3277 11.0069 43.2541 10.7148 43.1345 10.4526C43.0196 10.1904 42.8586 9.96507 42.6516 9.7765C42.4492 9.58332 42.2032 9.43614 41.9134 9.33495C41.6236 9.22916 41.2948 9.17627 40.9268 9.17627C40.2829 9.17627 39.7378 9.33265 39.2917 9.64541C38.8502 9.95818 38.5144 10.4066 38.2844 10.9908C38.059 11.5749 37.9464 12.2763 37.9464 13.095C37.9464 13.9597 38.0613 14.6841 38.2913 15.2682C38.5259 15.8478 38.8639 16.2847 39.3055 16.5791C39.747 16.8689 40.2783 17.0137 40.8992 17.0137C41.2534 17.0137 41.5707 16.97 41.8513 16.8827C42.1319 16.7907 42.3756 16.6596 42.5826 16.4894C42.7896 16.3192 42.9575 16.1145 43.0862 15.8754C43.2196 15.6316 43.3093 15.3579 43.3553 15.0544L47.2465 15.082C47.2005 15.6799 47.0326 16.2893 46.7428 16.9102C46.453 17.5266 46.0414 18.0969 45.5079 18.6212C44.9789 19.141 44.3235 19.5595 43.5416 19.8769C42.7597 20.1943 41.8513 20.3529 40.8164 20.3529C39.5194 20.3529 38.3557 20.0747 37.3254 19.5181C36.2998 18.9616 35.488 18.1429 34.89 17.062C34.2967 15.9812 34 14.6588 34 13.095C34 11.522 34.3036 10.1973 34.9107 9.12108C35.5178 8.0402 36.3365 7.2238 37.3668 6.67187C38.3971 6.11533 39.547 5.83707 40.8164 5.83707C41.7087 5.83707 42.5297 5.95895 43.2794 6.20272C44.0291 6.44649 44.6869 6.80295 45.2526 7.27209C45.8183 7.73664 46.2737 8.30927 46.6186 8.98999C46.9636 9.67071 47.1729 10.4503 47.2465 11.3288Z" fill="white"/>
<path d="M52.8503 14.1989V20.1598H49.042V6.03024H52.7123V11.5772H52.8227C53.0619 10.9011 53.4597 10.3744 54.0163 9.99727C54.5728 9.61552 55.242 9.42464 56.0239 9.42464C56.7736 9.42464 57.4245 9.59482 57.9764 9.93518C58.5329 10.2755 58.963 10.7447 59.2666 11.3426C59.5747 11.9405 59.7265 12.6259 59.7219 13.3986V20.1598H55.9135V14.1989C55.9181 13.6745 55.7871 13.2629 55.5203 12.9639C55.2581 12.665 54.8833 12.5155 54.3957 12.5155C54.0876 12.5155 53.8162 12.5845 53.5816 12.7224C53.3517 12.8558 53.1723 13.049 53.0435 13.302C52.9193 13.5503 52.8549 13.8493 52.8503 14.1989Z" fill="white"/>
<path d="M64.5548 20.3253C63.8787 20.3253 63.2807 20.215 62.761 19.9942C62.2458 19.7688 61.8411 19.4285 61.5467 18.9731C61.2524 18.5178 61.1052 17.9382 61.1052 17.2345C61.1052 16.655 61.2041 16.1605 61.4018 15.7512C61.5996 15.3372 61.8756 14.9992 62.2297 14.737C62.5839 14.4748 62.9956 14.2748 63.4647 14.1368C63.9384 13.9988 64.449 13.9091 64.9963 13.8677C65.5896 13.8217 66.0657 13.7665 66.4244 13.7021C66.7878 13.6331 67.05 13.5388 67.211 13.4193C67.3719 13.2951 67.4524 13.1318 67.4524 12.9294V12.9018C67.4524 12.6259 67.3466 12.4143 67.1351 12.2671C66.9235 12.1199 66.6521 12.0463 66.321 12.0463C65.9576 12.0463 65.6609 12.1268 65.431 12.2878C65.2056 12.4442 65.0699 12.6857 65.0239 13.0122H61.5191C61.5651 12.3683 61.7698 11.775 62.1332 11.2322C62.5011 10.6849 63.037 10.2479 63.7407 9.92138C64.4444 9.59022 65.3229 9.42464 66.3762 9.42464C67.1351 9.42464 67.8158 9.51433 68.4183 9.69371C69.0208 9.86849 69.5337 10.1146 69.9568 10.4319C70.38 10.7447 70.7019 11.1126 70.9227 11.5358C71.1481 11.9543 71.2608 12.4097 71.2608 12.9018V20.1598H67.7008V18.6695H67.618C67.4064 19.0651 67.1489 19.3848 66.8453 19.6285C66.5463 19.8723 66.2037 20.0494 65.8173 20.1598C65.4356 20.2702 65.0147 20.3253 64.5548 20.3253ZM65.7966 17.9244C66.0864 17.9244 66.3578 17.8646 66.6107 17.7451C66.8683 17.6255 67.0776 17.453 67.2386 17.2276C67.3995 17.0022 67.48 16.7286 67.48 16.4066V15.5235C67.3788 15.5649 67.2708 15.604 67.1558 15.6408C67.0454 15.6776 66.9258 15.7121 66.797 15.7443C66.6728 15.7765 66.5394 15.8064 66.3969 15.834C66.2589 15.8616 66.114 15.8869 65.9622 15.9099C65.6678 15.9559 65.4264 16.0318 65.2378 16.1375C65.0538 16.2387 64.9158 16.3652 64.8238 16.517C64.7365 16.6642 64.6928 16.8298 64.6928 17.0137C64.6928 17.3081 64.7962 17.5335 65.0032 17.6899C65.2102 17.8462 65.4747 17.9244 65.7966 17.9244Z" fill="white"/>
<path d="M79.4001 9.56262V12.3223H72.4181V9.56262H79.4001ZM73.7704 7.02372H77.5787V16.7516C77.5787 16.8988 77.604 17.0229 77.6546 17.1241C77.7052 17.2207 77.7834 17.2943 77.8892 17.3449C77.995 17.3909 78.1306 17.4139 78.2962 17.4139C78.4112 17.4139 78.5446 17.4001 78.6964 17.3725C78.8528 17.3449 78.9677 17.3219 79.0413 17.3035L79.5933 19.9804C79.4231 20.031 79.1793 20.0931 78.8619 20.1667C78.5492 20.2403 78.1766 20.2885 77.7443 20.3115C76.8704 20.3575 76.1368 20.2678 75.5434 20.0425C74.9501 19.8125 74.504 19.4514 74.205 18.9593C73.906 18.4672 73.7612 17.8508 73.7704 17.1103V7.02372Z" fill="white"/>
<path d="M90.0748 10.6941C90.015 10.4503 89.9208 10.2364 89.792 10.0525C89.6632 9.86389 89.5022 9.70521 89.309 9.57642C89.1205 9.44304 88.8997 9.34415 88.6467 9.27976C88.3983 9.21076 88.1247 9.17627 87.8257 9.17627C87.1818 9.17627 86.6322 9.33035 86.1768 9.63851C85.7261 9.94668 85.3811 10.3905 85.1419 10.9701C84.9074 11.5496 84.7901 12.2487 84.7901 13.0674C84.7901 13.8953 84.9028 14.6036 85.1281 15.1924C85.3535 15.7811 85.6893 16.2318 86.1354 16.5446C86.5816 16.8574 87.1358 17.0137 87.7981 17.0137C88.3822 17.0137 88.8675 16.9286 89.2538 16.7585C89.6448 16.5883 89.9369 16.3468 90.13 16.0341C90.3232 15.7213 90.4198 15.3533 90.4198 14.9302L91.0821 14.9992H87.8533V12.2671H94.1178V14.2265C94.1178 15.5143 93.8441 16.6159 93.2968 17.5312C92.754 18.4419 92.0043 19.141 91.0476 19.6285C90.0955 20.1115 89.0032 20.3529 87.7705 20.3529C86.3953 20.3529 85.1879 20.0609 84.1484 19.4767C83.109 18.8926 82.2972 18.0601 81.713 16.9792C81.1335 15.8984 80.8437 14.6128 80.8437 13.1226C80.8437 11.9543 81.0208 10.9195 81.375 10.018C81.7337 9.11648 82.2305 8.35527 82.8652 7.73434C83.4999 7.10881 84.2335 6.63737 85.066 6.32001C85.8985 5.99805 86.7908 5.83707 87.7429 5.83707C88.58 5.83707 89.3573 5.95665 90.0748 6.19582C90.797 6.43039 91.434 6.76615 91.9859 7.2031C92.5424 7.63545 92.9909 8.14829 93.3313 8.74162C93.6716 9.33495 93.8786 9.98577 93.9522 10.6941H90.0748Z" fill="white"/>
<path d="M95.9064 20.1598V6.03024H102.005C103.054 6.03024 103.972 6.23722 104.758 6.65117C105.545 7.06512 106.156 7.64695 106.593 8.39666C107.03 9.14637 107.249 10.0226 107.249 11.0252C107.249 12.0371 107.023 12.9133 106.573 13.6538C106.126 14.3943 105.499 14.9647 104.689 15.3648C103.884 15.765 102.944 15.9651 101.867 15.9651H98.2245V12.9846H101.095C101.545 12.9846 101.929 12.9064 102.247 12.75C102.569 12.5891 102.815 12.3614 102.985 12.067C103.16 11.7727 103.247 11.4254 103.247 11.0252C103.247 10.6205 103.16 10.2755 102.985 9.99037C102.815 9.70061 102.569 9.47983 102.247 9.32805C101.929 9.17167 101.545 9.09348 101.095 9.09348H99.7423V20.1598H95.9064Z" fill="white"/>
<path d="M108.27 9.12108V6.03024H120.55V9.12108H116.3V20.1598H112.52V9.12108H108.27Z" fill="white"/>
<path d="M133.481 10.4457C133.444 9.98577 133.272 9.62702 132.964 9.36945C132.66 9.11188 132.198 8.98309 131.577 8.98309C131.181 8.98309 130.857 9.03139 130.604 9.12797C130.356 9.21996 130.172 9.34645 130.052 9.50743C129.933 9.66841 129.87 9.85239 129.866 10.0594C129.857 10.2295 129.887 10.3836 129.956 10.5216C130.029 10.655 130.144 10.7769 130.301 10.8873C130.457 10.9931 130.657 11.0896 130.901 11.177C131.145 11.2644 131.434 11.3426 131.77 11.4116L132.929 11.66C133.711 11.8256 134.38 12.044 134.937 12.3154C135.493 12.5868 135.949 12.9064 136.303 13.2744C136.657 13.6377 136.917 14.0471 137.082 14.5024C137.253 14.9578 137.34 15.4545 137.345 15.9927C137.34 16.9217 137.108 17.7083 136.648 18.3522C136.188 18.9961 135.53 19.4859 134.675 19.8217C133.824 20.1575 132.8 20.3253 131.604 20.3253C130.376 20.3253 129.305 20.1437 128.389 19.7803C127.479 19.417 126.77 18.8581 126.264 18.1038C125.763 17.3449 125.51 16.3744 125.506 15.1924H129.148C129.171 15.6247 129.279 15.9881 129.473 16.2824C129.666 16.5768 129.937 16.7999 130.287 16.9516C130.641 17.1034 131.062 17.1793 131.549 17.1793C131.959 17.1793 132.301 17.1287 132.577 17.0275C132.853 16.9263 133.062 16.7861 133.205 16.6067C133.348 16.4273 133.421 16.2226 133.426 15.9927C133.421 15.7765 133.35 15.5879 133.212 15.4269C133.079 15.2613 132.858 15.1142 132.55 14.9854C132.241 14.852 131.825 14.7278 131.301 14.6128L129.893 14.3093C128.642 14.0379 127.656 13.5848 126.934 12.9501C126.216 12.3108 125.86 11.4392 125.864 10.3353C125.86 9.43844 126.099 8.65423 126.582 7.98271C127.069 7.30659 127.743 6.77995 128.603 6.4028C129.468 6.02564 130.459 5.83707 131.577 5.83707C132.718 5.83707 133.704 6.02794 134.537 6.4097C135.369 6.79145 136.011 7.32959 136.461 8.02411C136.917 8.71402 137.147 9.52123 137.151 10.4457H133.481Z" fill="white"/>
<path d="M138.859 20.1598V9.56262H142.667V20.1598H138.859ZM140.763 8.45875C140.248 8.45875 139.806 8.28857 139.438 7.94822C139.071 7.60786 138.887 7.1985 138.887 6.72016C138.887 6.24182 139.071 5.83247 139.438 5.49211C139.806 5.15175 140.248 4.98157 140.763 4.98157C141.283 4.98157 141.724 5.15175 142.088 5.49211C142.456 5.83247 142.64 6.24182 142.64 6.72016C142.64 7.1985 142.456 7.60786 142.088 7.94822C141.724 8.28857 141.283 8.45875 140.763 8.45875Z" fill="white"/>
<path d="M148.444 20.2977C147.689 20.2977 146.995 20.1 146.36 19.7044C145.73 19.3089 145.224 18.7086 144.842 17.9037C144.465 17.0988 144.277 16.0846 144.277 14.8612C144.277 13.5825 144.474 12.5431 144.87 11.7428C145.27 10.9425 145.785 10.356 146.415 9.98347C147.05 9.61092 147.717 9.42464 148.416 9.42464C148.94 9.42464 149.4 9.51663 149.796 9.70061C150.191 9.87998 150.523 10.1215 150.789 10.425C151.056 10.724 151.259 11.0528 151.396 11.4116H151.452V6.03024H155.26V20.1598H151.479V18.4212H151.396C151.249 18.7799 151.038 19.1019 150.762 19.3871C150.49 19.6676 150.159 19.8907 149.768 20.0563C149.382 20.2173 148.94 20.2977 148.444 20.2977ZM149.851 17.3725C150.201 17.3725 150.5 17.2713 150.748 17.0689C151.001 16.862 151.194 16.5722 151.328 16.1996C151.465 15.8225 151.534 15.3763 151.534 14.8612C151.534 14.3369 151.465 13.8884 151.328 13.5159C151.194 13.1387 151.001 12.8512 150.748 12.6535C150.5 12.4511 150.201 12.3499 149.851 12.3499C149.502 12.3499 149.203 12.4511 148.954 12.6535C148.71 12.8512 148.522 13.1387 148.388 13.5159C148.26 13.8884 148.195 14.3369 148.195 14.8612C148.195 15.3855 148.26 15.8363 148.388 16.2134C148.522 16.586 148.71 16.8735 148.954 17.0758C149.203 17.2736 149.502 17.3725 149.851 17.3725Z" fill="white"/>
<path d="M162.208 20.3529C161.076 20.3529 160.101 20.1368 159.282 19.7044C158.468 19.2675 157.84 18.6419 157.399 17.8278C156.962 17.0091 156.743 16.0295 156.743 14.8888C156.743 13.7941 156.964 12.8374 157.406 12.0187C157.847 11.2 158.47 10.563 159.275 10.1077C160.08 9.65231 161.03 9.42464 162.125 9.42464C162.925 9.42464 163.649 9.54882 164.298 9.79719C164.946 10.0456 165.501 10.4066 165.961 10.8804C166.421 11.3495 166.775 11.9198 167.023 12.5914C167.272 13.2629 167.396 14.0195 167.396 14.8612V15.7443H157.93V13.6469H163.891C163.886 13.3434 163.808 13.0766 163.656 12.8466C163.509 12.6121 163.309 12.4304 163.056 12.3016C162.808 12.1682 162.525 12.1015 162.208 12.1015C161.899 12.1015 161.616 12.1682 161.359 12.3016C161.101 12.4304 160.894 12.6098 160.738 12.8397C160.586 13.0697 160.506 13.3388 160.497 13.6469V15.9099C160.497 16.2502 160.568 16.5538 160.71 16.8206C160.853 17.0873 161.058 17.2966 161.324 17.4484C161.591 17.6002 161.913 17.6761 162.29 17.6761C162.552 17.6761 162.792 17.6393 163.008 17.5657C163.229 17.4921 163.417 17.3863 163.574 17.2483C163.73 17.1057 163.845 16.9355 163.919 16.7378H167.396C167.276 17.4737 166.993 18.113 166.547 18.6557C166.101 19.1939 165.51 19.6124 164.774 19.9114C164.043 20.2058 163.187 20.3529 162.208 20.3529Z" fill="white"/>
<path d="M168.895 20.1598V6.03024H172.703V11.4116H172.758C172.896 11.0528 173.098 10.724 173.365 10.425C173.632 10.1215 173.963 9.87998 174.359 9.70061C174.754 9.51663 175.214 9.42464 175.739 9.42464C176.438 9.42464 177.102 9.61092 177.732 9.98347C178.367 10.356 178.882 10.9425 179.278 11.7428C179.678 12.5431 179.878 13.5825 179.878 14.8612C179.878 16.0846 179.687 17.0988 179.305 17.9037C178.928 18.7086 178.422 19.3089 177.788 19.7044C177.157 20.1 176.465 20.2977 175.711 20.2977C175.214 20.2977 174.77 20.2173 174.379 20.0563C173.993 19.8907 173.662 19.6676 173.386 19.3871C173.115 19.1019 172.905 18.7799 172.758 18.4212H172.675V20.1598H168.895ZM172.62 14.8612C172.62 15.3763 172.687 15.8225 172.82 16.1996C172.958 16.5722 173.151 16.862 173.4 17.0689C173.653 17.2713 173.954 17.3725 174.303 17.3725C174.653 17.3725 174.95 17.2736 175.193 17.0758C175.442 16.8735 175.63 16.586 175.759 16.2134C175.893 15.8363 175.959 15.3855 175.959 14.8612C175.959 14.3369 175.893 13.8884 175.759 13.5159C175.63 13.1387 175.442 12.8512 175.193 12.6535C174.95 12.4511 174.653 12.3499 174.303 12.3499C173.954 12.3499 173.653 12.4511 173.4 12.6535C173.151 12.8512 172.958 13.1387 172.82 13.5159C172.687 13.8884 172.62 14.3369 172.62 14.8612Z" fill="white"/>
<path d="M184.425 20.3253C183.748 20.3253 183.151 20.215 182.631 19.9942C182.116 19.7688 181.711 19.4285 181.417 18.9731C181.122 18.5178 180.975 17.9382 180.975 17.2345C180.975 16.655 181.074 16.1605 181.272 15.7512C181.469 15.3372 181.745 14.9992 182.1 14.737C182.454 14.4748 182.865 14.2748 183.335 14.1368C183.808 13.9988 184.319 13.9091 184.866 13.8677C185.459 13.8217 185.936 13.7665 186.294 13.7021C186.658 13.6331 186.92 13.5388 187.081 13.4193C187.242 13.2951 187.322 13.1318 187.322 12.9294V12.9018C187.322 12.6259 187.216 12.4143 187.005 12.2671C186.793 12.1199 186.522 12.0463 186.191 12.0463C185.827 12.0463 185.531 12.1268 185.301 12.2878C185.075 12.4442 184.94 12.6857 184.894 13.0122H181.389C181.435 12.3683 181.64 11.775 182.003 11.2322C182.371 10.6849 182.907 10.2479 183.61 9.92138C184.314 9.59022 185.193 9.42464 186.246 9.42464C187.005 9.42464 187.686 9.51433 188.288 9.69371C188.891 9.86849 189.403 10.1146 189.827 10.4319C190.25 10.7447 190.572 11.1126 190.793 11.5358C191.018 11.9543 191.131 12.4097 191.131 12.9018V20.1598H187.571V18.6695H187.488C187.276 19.0651 187.019 19.3848 186.715 19.6285C186.416 19.8723 186.073 20.0494 185.687 20.1598C185.305 20.2702 184.885 20.3253 184.425 20.3253ZM185.666 17.9244C185.956 17.9244 186.228 17.8646 186.481 17.7451C186.738 17.6255 186.947 17.453 187.108 17.2276C187.269 17.0022 187.35 16.7286 187.35 16.4066V15.5235C187.249 15.5649 187.141 15.604 187.026 15.6408C186.915 15.6776 186.796 15.7121 186.667 15.7443C186.543 15.7765 186.409 15.8064 186.267 15.834C186.129 15.8616 185.984 15.8869 185.832 15.9099C185.538 15.9559 185.296 16.0318 185.108 16.1375C184.924 16.2387 184.786 16.3652 184.694 16.517C184.606 16.6642 184.563 16.8298 184.563 17.0137C184.563 17.3081 184.666 17.5335 184.873 17.6899C185.08 17.8462 185.344 17.9244 185.666 17.9244Z" fill="white"/>
<path d="M192.95 20.1598V9.56262H196.648V11.5772H196.759C196.952 10.8321 197.258 10.287 197.676 9.94208C198.099 9.59712 198.594 9.42464 199.16 9.42464C199.325 9.42464 199.488 9.43844 199.649 9.46603C199.815 9.48903 199.974 9.52353 200.125 9.56952V12.819C199.937 12.7546 199.705 12.7063 199.429 12.6742C199.153 12.642 198.916 12.6259 198.718 12.6259C198.345 12.6259 198.01 12.7109 197.711 12.8811C197.416 13.0467 197.184 13.2813 197.014 13.5848C196.844 13.8838 196.759 14.2357 196.759 14.6404V20.1598H192.95Z" fill="white"/>
<defs>
<linearGradient id="paint0_linear_442_425" x1="12.9226" y1="-7.26425" x2="-7.37767" y2="15.1421" gradientUnits="userSpaceOnUse">
<stop stop-color="#32C5FF"/>
<stop offset="0.540947" stop-color="#B620E0"/>
<stop offset="1" stop-color="#F7B500"/>
</linearGradient>
<clipPath id="clip0_442_425">
<rect width="25.9041" height="25.9041" fill="white"/>
</clipPath>
</defs>
</svg>
